<svg width="26" height="30" viewBox="0 0 26 30" fill="none" xmlns="http://www.w3.org/2000/svg">
<g clip-path="url(#clip0_62_151)">
<path d="M25.3036 28.125H24.1429V1.40625C24.1429 0.62959 23.5193 0 22.75 0H3.25C2.48074 0 1.85714 0.62959 1.85714 1.40625V28.125H0.696429C0.311826 28.125 0 28.4398 0 28.8281V30H26V28.8281C26 28.4398 25.6882 28.125 25.3036 28.125ZM7.42857 4.45312C7.42857 4.06482 7.7404 3.75 8.125 3.75H10.4464C10.831 3.75 11.1429 4.06482 11.1429 4.45312V6.79688C11.1429 7.18518 10.831 7.5 10.4464 7.5H8.125C7.7404 7.5 7.42857 7.18518 7.42857 6.79688V4.45312ZM7.42857 10.0781C7.42857 9.68982 7.7404 9.375 8.125 9.375H10.4464C10.831 9.375 11.1429 9.68982 11.1429 10.0781V12.4219C11.1429 12.8102 10.831 13.125 10.4464 13.125H8.125C7.7404 13.125 7.42857 12.8102 7.42857 12.4219V10.0781ZM10.4464 18.75H8.125C7.7404 18.75 7.42857 18.4352 7.42857 18.0469V15.7031C7.42857 15.3148 7.7404 15 8.125 15H10.4464C10.831 15 11.1429 15.3148 11.1429 15.7031V18.0469C11.1429 18.4352 10.831 18.75 10.4464 18.75ZM14.8571 28.125H11.1429V23.2031C11.1429 22.8148 11.4547 22.5 11.8393 22.5H14.1607C14.5453 22.5 14.8571 22.8148 14.8571 23.2031V28.125ZM18.5714 18.0469C18.5714 18.4352 18.2596 18.75 17.875 18.75H15.5536C15.169 18.75 14.8571 18.4352 14.8571 18.0469V15.7031C14.8571 15.3148 15.169 15 15.5536 15H17.875C18.2596 15 18.5714 15.3148 18.5714 15.7031V18.0469ZM18.5714 12.4219C18.5714 12.8102 18.2596 13.125 17.875 13.125H15.5536C15.169 13.125 14.8571 12.8102 14.8571 12.4219V10.0781C14.8571 9.68982 15.169 9.375 15.5536 9.375H17.875C18.2596 9.375 18.5714 9.68982 18.5714 10.0781V12.4219ZM18.5714 6.79688C18.5714 7.18518 18.2596 7.5 17.875 7.5H15.5536C15.169 7.5 14.8571 7.18518 14.8571 6.79688V4.45312C14.8571 4.06482 15.169 3.75 15.5536 3.75H17.875C18.2596 3.75 18.5714 4.06482 18.5714 4.45312V6.79688Z" fill="#5C807F"/>
</g>
<defs>
<clipPath id="clip0_62_151">
<rect width="26" height="30" fill="white"/>
</clipPath>
</defs>
</svg>
