<svg width="24" height="24" viewBox="0 0 24 24" fill="none" xmlns="http://www.w3.org/2000/svg">
<path d="M20.88 6.71498C20.1579 6.00153 19.1851 5.59945 18.17 5.59498H16.75C16.5404 5.59463 16.3393 5.51205 16.19 5.36498L15.04 4.21498C14.6096 3.78654 14.0273 3.54569 13.42 3.54498H10.58C9.97272 3.54569 9.39037 3.78654 8.95999 4.21498L7.80999 5.36498C7.66066 5.51205 7.45958 5.59463 7.24999 5.59498H5.82999C5.32581 5.59366 4.82636 5.69215 4.36043 5.88478C3.8945 6.07741 3.47132 6.36037 3.11527 6.71735C2.75923 7.07432 2.47737 7.49824 2.28596 7.96467C2.09454 8.4311 1.99735 8.93081 1.99999 9.43498V16.625C1.99867 17.1283 2.09684 17.6269 2.28885 18.0922C2.48085 18.5575 2.76292 18.9802 3.11883 19.3361C3.47474 19.6921 3.89748 19.9741 4.36275 20.1661C4.82803 20.3581 5.32666 20.4563 5.82999 20.455H18.17C19.1855 20.4527 20.1591 20.0503 20.88 19.335C21.236 18.9793 21.5182 18.5568 21.7104 18.0917C21.9026 17.6267 22.001 17.1282 22 16.625V9.43498C22.0012 8.93024 21.9029 8.43021 21.7108 7.96349C21.5186 7.49676 21.2363 7.07251 20.88 6.71498ZM11.96 16.195C11.2322 16.195 10.5207 15.9792 9.91549 15.5748C9.31032 15.1704 8.83865 14.5957 8.56011 13.9233C8.28158 13.2508 8.20871 12.5109 8.3507 11.7971C8.49269 11.0832 8.84318 10.4275 9.35784 9.91283C9.8725 9.39817 10.5282 9.04769 11.2421 8.90569C11.9559 8.7637 12.6958 8.83658 13.3683 9.11511C14.0407 9.39364 14.6154 9.86531 15.0198 10.4705C15.4242 11.0757 15.64 11.7871 15.64 12.515C15.6374 13.4902 15.2488 14.4247 14.5592 15.1142C13.8697 15.8038 12.9352 16.1923 11.96 16.195Z" fill="white"/>
</svg>
