<svg width="89" height="89" viewBox="0 0 89 89" fill="none" xmlns="http://www.w3.org/2000/svg">
<path d="M72.3125 7.41667H16.6875C14.2287 7.41667 11.8706 8.39342 10.132 10.132C8.39341 11.8707 7.41666 14.2287 7.41666 16.6875V72.3125C7.41666 74.7713 8.39341 77.1294 10.132 78.868C11.8706 80.6066 14.2287 81.5833 16.6875 81.5833H72.3125C74.7713 81.5833 77.1293 80.6066 78.868 78.868C80.6066 77.1294 81.5833 74.7713 81.5833 72.3125V16.6875C81.5833 14.2287 80.6066 11.8707 78.868 10.132C77.1293 8.39342 74.7713 7.41667 72.3125 7.41667ZM16.6875 77.875C15.2122 77.875 13.7974 77.289 12.7542 76.2458C11.711 75.2026 11.125 73.7878 11.125 72.3125V52.9365L25.0795 38.9857C26.2978 37.7724 27.9472 37.0912 29.6667 37.0912C31.3861 37.0912 33.0355 37.7724 34.2539 38.9857L73.0727 77.7971C72.8205 77.8342 72.5721 77.8713 72.3125 77.875H16.6875ZM77.875 72.3125C77.875 73.7143 77.3373 74.9825 76.477 75.9615L50.8301 50.3147L54.7461 46.4024C55.9645 45.1891 57.6139 44.5078 59.3333 44.5078C61.0528 44.5078 62.7022 45.1891 63.9205 46.4024L77.875 60.3531V72.3125ZM77.875 55.1095L66.5423 43.7806C64.6286 41.8721 62.0361 40.8003 59.3333 40.8003C56.6306 40.8003 54.0381 41.8721 52.1243 43.7806L48.2083 47.6892L36.8757 36.3639C34.9336 34.5096 32.3518 33.4749 29.6667 33.4749C26.9815 33.4749 24.3997 34.5096 22.4577 36.3639L11.125 47.6892V16.6875C11.125 15.2122 11.711 13.7974 12.7542 12.7542C13.7974 11.7111 15.2122 11.125 16.6875 11.125H72.3125C73.7878 11.125 75.2026 11.7111 76.2458 12.7542C77.2889 13.7974 77.875 15.2122 77.875 16.6875V55.1095Z" fill="#5C807F"/>
</svg>
