<svg width="22" height="22" viewBox="0 0 22 22" fill="none" xmlns="http://www.w3.org/2000/svg">
<path d="M8.97599 4.48433C7.58721 3.84056 6.50335 2.68175 5.95374 1.25308C5.88774 1.05967 5.96199 0.996415 6.20857 0.957915C6.64449 0.907085 7.08625 0.957913 7.49924 1.10642C7.72481 1.17603 7.94637 1.25805 8.1629 1.35208C8.35116 1.43821 8.55643 1.48071 8.7634 1.47643C8.97038 1.47214 9.17371 1.42118 9.35824 1.32733C9.67174 1.17883 9.97699 1.02025 10.3015 0.887332C10.5522 0.77579 10.8232 0.717086 11.0977 0.714878C11.3721 0.71267 11.644 0.767006 11.8965 0.874499C12.8735 1.29518 13.9624 1.38028 14.993 1.1165C15.2513 1.05758 15.5131 1.01472 15.7767 0.988165C16.2497 0.940499 16.3827 1.06517 16.2305 1.3915C15.679 2.58394 14.793 3.59056 13.6803 4.28908C13.6116 4.33308 13.5557 4.38808 13.4264 4.49075C13.5257 4.533 13.6224 4.58105 13.7161 4.63467C15.9801 6.05509 17.8688 7.99975 19.2225 10.3042C19.733 11.2803 20.0307 12.3535 20.0961 13.453C20.1772 14.4655 20.22 15.4806 20.2244 16.4963C20.227 17.3307 20.0203 18.1523 19.6231 18.8861C18.9475 20.1373 17.6532 20.779 15.9179 20.9779C15.5286 21.0158 15.1375 21.033 14.7464 21.0292C12.2916 21.0338 9.83674 21.0412 7.3819 21.0274C6.15856 21.0749 4.95002 20.7467 3.91874 20.0869C3.17552 19.5627 2.65554 18.7791 2.46124 17.8906C2.19455 16.7059 2.14208 15.483 2.30632 14.2798C2.36307 13.4788 2.47239 12.6823 2.63357 11.8956C3.11074 10.2332 4.02419 8.72883 5.27907 7.53867C6.36313 6.40184 7.57862 5.39806 8.8999 4.5485C8.92641 4.5285 8.95181 4.50708 8.97599 4.48433ZM11.3905 9.03833C11.7802 7.60636 11.9148 6.11698 11.7883 4.63833C11.7792 4.49075 11.6829 4.44125 11.4913 4.44858C11.2444 4.46739 10.9964 4.46617 10.7497 4.44492C10.4326 4.3947 10.108 4.42458 9.80545 4.53185C9.50286 4.63912 9.2319 4.82036 9.01724 5.05908C7.24608 6.70367 6.14933 8.9478 5.93999 11.3557C5.91249 11.6398 5.93632 11.9277 5.93632 12.276C5.96749 12.1761 5.98215 12.1348 5.99224 12.0927C6.35298 10.6716 6.91247 9.30849 7.65415 8.04375C8.37118 6.75914 9.37578 5.65791 10.5893 4.82625C10.6682 4.774 10.7543 4.72817 10.8387 4.67958L10.9487 4.70066L11.3905 9.03833ZM11.8717 4.47975C15.5861 7.65142 17.0326 11.4803 17.8108 15.5127C17.8245 15.3524 17.8275 15.1913 17.82 15.0306C17.7604 14.2239 17.7329 13.4154 17.6238 12.6124C17.3736 10.6785 16.6597 8.83378 15.543 7.23525C14.8834 6.29329 14.0754 5.46456 13.1505 4.78133C12.9755 4.6351 12.7688 4.5317 12.5468 4.47935C12.3248 4.42699 12.0937 4.42713 11.8717 4.47975Z" fill="#14213D"/>
</svg>
