<svg width="26" height="26" viewBox="0 0 26 26" fill="none" xmlns="http://www.w3.org/2000/svg">
<path d="M10.608 5.29967C8.96671 4.53885 7.68579 3.16935 7.03625 1.48092C6.95825 1.25234 7.046 1.17759 7.33741 1.13209C7.85259 1.07202 8.37468 1.13209 8.86275 1.30759C9.12933 1.38987 9.39118 1.48679 9.64708 1.59792C9.86956 1.69971 10.1122 1.74994 10.3568 1.74488C10.6014 1.73981 10.8417 1.67958 11.0597 1.56867C11.4302 1.39317 11.791 1.20576 12.1745 1.04867C12.4708 0.916851 12.7911 0.847473 13.1154 0.844864C13.4397 0.842255 13.7611 0.90647 14.0595 1.03351C15.2142 1.53067 16.5011 1.63125 17.719 1.31951C18.0243 1.24987 18.3337 1.19922 18.6452 1.16784C19.2042 1.11151 19.3613 1.25884 19.1815 1.64451C18.5297 3.05375 17.4827 4.2434 16.1677 5.06892C16.0864 5.12092 16.0203 5.18592 15.8676 5.30726C15.9849 5.35719 16.0992 5.41398 16.2099 5.47734C18.8855 7.15602 21.1176 9.45426 22.7175 12.1778C23.3208 13.3313 23.6727 14.5996 23.7499 15.899C23.8457 17.0956 23.8963 18.2953 23.9016 19.4957C23.9047 20.4817 23.6603 21.4528 23.1909 22.3199C22.3925 23.7987 20.8628 24.557 18.8121 24.7921C18.352 24.8369 17.8898 24.8572 17.4276 24.8528C14.5264 24.8582 11.6252 24.8668 8.72408 24.8506C7.27831 24.9067 5.85003 24.5188 4.63125 23.7391C3.75289 23.1195 3.13838 22.1935 2.90875 21.1434C2.59357 19.7433 2.53156 18.2981 2.72566 16.8762C2.79273 15.9295 2.92192 14.9882 3.11241 14.0584C3.67635 12.0938 4.75587 10.3159 6.23891 8.90934C7.52007 7.56582 8.95656 6.37954 10.5181 5.37551C10.5494 5.35188 10.5794 5.32656 10.608 5.29967ZM13.4615 10.6817C13.922 8.98934 14.0812 7.22917 13.9317 5.48167C13.9208 5.30726 13.8071 5.24876 13.5807 5.25742C13.2889 5.27965 12.9958 5.27821 12.7042 5.25309C12.3295 5.19374 11.9459 5.22906 11.5883 5.35583C11.2307 5.4826 10.9104 5.6968 10.6567 5.97892C8.56356 7.92252 7.26741 10.5747 7.02 13.4203C6.9875 13.7562 7.01566 14.0963 7.01566 14.508C7.0525 14.3899 7.06983 14.3412 7.08175 14.2913C7.50808 12.6119 8.16929 11.0009 9.04583 9.50626C9.89322 7.98808 11.0805 6.68662 12.5147 5.70376C12.6078 5.64201 12.7097 5.58784 12.8093 5.53042L12.9393 5.55534L13.4615 10.6817ZM14.0302 5.29426C18.4199 9.04259 20.1294 13.5677 21.0492 18.3333C21.0653 18.1438 21.0689 17.9534 21.06 17.7634C20.9896 16.8101 20.9571 15.8546 20.8282 14.9056C20.5325 12.6201 19.6888 10.4399 18.369 8.55076C17.5895 7.43753 16.6346 6.45812 15.5415 5.65067C15.3347 5.47785 15.0904 5.35565 14.828 5.29378C14.5657 5.23191 14.2925 5.23207 14.0302 5.29426Z" fill="#5C807F"/>
</svg>
