<svg width="16" height="16" viewBox="0 0 16 16" fill="none" xmlns="http://www.w3.org/2000/svg">
<g clip-path="url(#clip0_25_82)">
<path d="M8 0C12.4184 0 16 3.5816 16 8C16 12.4184 12.4184 16 8 16C3.5816 16 0 12.4184 0 8C0 3.5816 3.5816 0 8 0ZM7.884 5.768C7.73617 5.76842 7.5945 5.82728 7.4899 5.93173C7.38529 6.03619 7.32623 6.17777 7.3256 6.3256V12.372C7.33107 12.5163 7.39225 12.6529 7.4963 12.7531C7.60034 12.8533 7.73916 12.9093 7.8836 12.9093C8.02804 12.9093 8.16686 12.8533 8.27091 12.7531C8.37495 12.6529 8.43613 12.5163 8.4416 12.372V6.3256C8.44118 6.17777 8.38232 6.03611 8.27787 5.9315C8.17341 5.82689 8.03183 5.76863 7.884 5.768ZM7.9064 3.5344C7.70908 3.5344 7.51984 3.61279 7.38031 3.75231C7.24079 3.89184 7.1624 4.08108 7.1624 4.2784C7.1624 4.47572 7.24079 4.66496 7.38031 4.80449C7.51984 4.94401 7.70908 5.0224 7.9064 5.0224C8.10372 5.0224 8.29296 4.94401 8.43249 4.80449C8.57201 4.66496 8.6504 4.47572 8.6504 4.2784C8.6504 4.08108 8.57201 3.89184 8.43249 3.75231C8.29296 3.61279 8.10372 3.5344 7.9064 3.5344Z" fill="white"/>
</g>
<defs>
<clipPath id="clip0_25_82">
<rect width="16" height="16" fill="white"/>
</clipPath>
</defs>
</svg>
