<svg width="32" height="32" viewBox="0 0 32 32" fill="none" xmlns="http://www.w3.org/2000/svg">
<path d="M12.438 2.188L6.438 6.188C5.76 6.674 6.168 7.984 7 8H9.25L12.062 17.312C12.1296 17.5086 12.2557 17.6799 12.4233 17.8028C12.5909 17.9258 12.7922 17.9946 13 18H14V29C14 29.554 14.446 30 15 30H17C17.554 30 18 29.554 18 29V18H19C19.2078 17.9946 19.409 17.9258 19.5767 17.8028C19.7443 17.6799 19.8704 17.5086 19.938 17.312L22.75 8H25C25.832 7.984 26.24 6.674 25.562 6.188L19.562 2.188C19.398 2.06999 19.202 2.00444 19 2H13C12.798 2.00444 12.602 2.06999 12.438 2.188ZM11.312 8H20.688L18.25 16H13.75L11.312 8Z" fill="#5C807F"/>
</svg>
