<svg width="24" height="24" viewBox="0 0 24 24" fill="none" xmlns="http://www.w3.org/2000/svg">
<path d="M9.32852 1.641L4.82852 4.641C4.32002 5.0055 4.62602 5.988 5.25002 6H6.93752L9.04652 12.984C9.09722 13.1315 9.19176 13.2599 9.3175 13.3521C9.44323 13.4443 9.59414 13.4959 9.75002 13.5H10.5V21.75C10.5 22.1655 10.8345 22.5 11.25 22.5H12.75C13.1655 22.5 13.5 22.1655 13.5 21.75V13.5H14.25C14.4059 13.4959 14.5568 13.4443 14.6825 13.3521C14.8083 13.2599 14.9028 13.1315 14.9535 12.984L17.0625 6H18.75C19.374 5.988 19.68 5.0055 19.1715 4.641L14.6715 1.641C14.5485 1.55249 14.4015 1.50333 14.25 1.5H9.75002C9.5985 1.50333 9.45154 1.55249 9.32852 1.641ZM8.48402 6H15.516L13.6875 12H10.3125L8.48402 6Z" fill="#14213D"/>
</svg>
