<svg width="32" height="32" viewBox="0 0 32 32" fill="none" xmlns="http://www.w3.org/2000/svg">
<circle cx="16" cy="16" r="16" fill="#14213D"/>
<g clip-path="url(#clip0_36_36)">
<path d="M23.5714 23.875H22.8571V7.84375C22.8571 7.37775 22.4734 7 22 7H10C9.52661 7 9.14286 7.37775 9.14286 7.84375V23.875H8.42857C8.19189 23.875 8 24.0639 8 24.2969V25H24V24.2969C24 24.0639 23.8081 23.875 23.5714 23.875ZM12.5714 9.67188C12.5714 9.43889 12.7633 9.25 13 9.25H14.4286C14.6653 9.25 14.8571 9.43889 14.8571 9.67188V11.0781C14.8571 11.3111 14.6653 11.5 14.4286 11.5H13C12.7633 11.5 12.5714 11.3111 12.5714 11.0781V9.67188ZM12.5714 13.0469C12.5714 12.8139 12.7633 12.625 13 12.625H14.4286C14.6653 12.625 14.8571 12.8139 14.8571 13.0469V14.4531C14.8571 14.6861 14.6653 14.875 14.4286 14.875H13C12.7633 14.875 12.5714 14.6861 12.5714 14.4531V13.0469ZM14.4286 18.25H13C12.7633 18.25 12.5714 18.0611 12.5714 17.8281V16.4219C12.5714 16.1889 12.7633 16 13 16H14.4286C14.6653 16 14.8571 16.1889 14.8571 16.4219V17.8281C14.8571 18.0611 14.6653 18.25 14.4286 18.25ZM17.1429 23.875H14.8571V20.9219C14.8571 20.6889 15.049 20.5 15.2857 20.5H16.7143C16.951 20.5 17.1429 20.6889 17.1429 20.9219V23.875ZM19.4286 17.8281C19.4286 18.0611 19.2367 18.25 19 18.25H17.5714C17.3348 18.25 17.1429 18.0611 17.1429 17.8281V16.4219C17.1429 16.1889 17.3348 16 17.5714 16H19C19.2367 16 19.4286 16.1889 19.4286 16.4219V17.8281ZM19.4286 14.4531C19.4286 14.6861 19.2367 14.875 19 14.875H17.5714C17.3348 14.875 17.1429 14.6861 17.1429 14.4531V13.0469C17.1429 12.8139 17.3348 12.625 17.5714 12.625H19C19.2367 12.625 19.4286 12.8139 19.4286 13.0469V14.4531ZM19.4286 11.0781C19.4286 11.3111 19.2367 11.5 19 11.5H17.5714C17.3348 11.5 17.1429 11.3111 17.1429 11.0781V9.67188C17.1429 9.43889 17.3348 9.25 17.5714 9.25H19C19.2367 9.25 19.4286 9.43889 19.4286 9.67188V11.0781Z" fill="white"/>
</g>
<defs>
<clipPath id="clip0_36_36">
<rect width="16" height="18" fill="white" transform="translate(8 7)"/>
</clipPath>
</defs>
</svg>
