<svg width="32" height="32" viewBox="0 0 32 32" fill="none" xmlns="http://www.w3.org/2000/svg">
<circle cx="16" cy="16" r="16" fill="#1D855C"/>
<path d="M14.344 10.669C13.2078 10.1423 12.321 9.19415 11.8713 8.02524C11.8173 7.86699 11.878 7.81524 12.0798 7.78374C12.4364 7.74215 12.7979 7.78374 13.1358 7.90524C13.3203 7.9622 13.5016 8.0293 13.6788 8.10624C13.8328 8.17671 14.0008 8.21148 14.1701 8.20798C14.3394 8.20447 14.5058 8.16277 14.6568 8.08599C14.9133 7.96449 15.163 7.83474 15.4285 7.72599C15.6337 7.63473 15.8554 7.5867 16.0799 7.58489C16.3045 7.58309 16.527 7.62754 16.7335 7.71549C17.5329 8.05968 18.4239 8.12931 19.267 7.91349C19.4784 7.86528 19.6926 7.83022 19.9083 7.80849C20.2953 7.76949 20.404 7.87149 20.2795 8.13849C19.8283 9.11412 19.1034 9.93772 18.193 10.5092C18.1368 10.5452 18.091 10.5902 17.9853 10.6742C18.0665 10.7088 18.1457 10.7481 18.2223 10.792C20.0746 11.9542 21.6199 13.5452 22.7275 15.4307C23.1452 16.2293 23.3888 17.1074 23.4423 18.007C23.5086 18.8354 23.5437 19.666 23.5473 20.497C23.5494 21.1796 23.3803 21.8519 23.0553 22.4522C22.5025 23.476 21.4435 24.001 20.0238 24.1637C19.7053 24.1948 19.3853 24.2088 19.0653 24.2057C17.0568 24.2095 15.0483 24.2155 13.0398 24.2042C12.0389 24.2431 11.0501 23.9745 10.2063 23.4347C9.5982 23.0058 9.17277 22.3647 9.01379 21.6377C8.79559 20.6684 8.75266 19.6679 8.88704 18.6835C8.93347 18.0281 9.02291 17.3764 9.15479 16.7327C9.5452 15.3726 10.2926 14.1418 11.3193 13.168C12.2062 12.2379 13.2007 11.4166 14.2818 10.7215C14.3035 10.7051 14.3243 10.6876 14.344 10.669ZM16.3195 14.395C16.6384 13.2234 16.7485 12.0048 16.645 10.795C16.6375 10.6742 16.5588 10.6337 16.402 10.6397C16.2 10.6551 15.9971 10.6541 15.7953 10.6367C15.5359 10.5957 15.2703 10.6201 15.0227 10.7079C14.7751 10.7956 14.5534 10.9439 14.3778 11.1392C12.9287 12.4848 12.0313 14.3209 11.86 16.291C11.8375 16.5235 11.857 16.759 11.857 17.044C11.8825 16.9622 11.8945 16.9285 11.9028 16.894C12.1979 15.7313 12.6557 14.616 13.2625 13.5812C13.8492 12.5302 14.6711 11.6292 15.664 10.9487C15.7285 10.906 15.799 10.8685 15.868 10.8287L15.958 10.846L16.3195 14.395ZM16.7133 10.6652C19.7523 13.2602 20.9358 16.393 21.5725 19.6922C21.5837 19.561 21.5862 19.4293 21.58 19.2977C21.5313 18.6377 21.5088 17.9762 21.4195 17.3192C21.2148 15.737 20.6308 14.2276 19.717 12.9197C19.1774 12.149 18.5163 11.471 17.7595 10.912C17.6163 10.7923 17.4472 10.7077 17.2656 10.6649C17.084 10.6221 16.8949 10.6222 16.7133 10.6652Z" fill="white"/>
</svg>
