<svg width="32" height="32" viewBox="0 0 32 32" fill="none" xmlns="http://www.w3.org/2000/svg">
<circle cx="16" cy="16" r="16" fill="#F1C433"/>
<path d="M13.7738 7.3675L10.0238 9.8675C9.60003 10.1713 9.85503 10.99 10.375 11H11.7813L13.5388 16.82C13.581 16.9429 13.6598 17.0499 13.7646 17.1268C13.8694 17.2036 13.9951 17.2466 14.125 17.25H14.75V24.125C14.75 24.4713 15.0288 24.75 15.375 24.75H16.625C16.9713 24.75 17.25 24.4713 17.25 24.125V17.25H17.875C18.0049 17.2466 18.1307 17.2036 18.2355 17.1268C18.3402 17.0499 18.419 16.9429 18.4613 16.82L20.2188 11H21.625C22.145 10.99 22.4 10.1713 21.9763 9.8675L18.2263 7.3675C18.1238 7.29374 18.0013 7.25278 17.875 7.25H14.125C13.9988 7.25278 13.8763 7.29374 13.7738 7.3675ZM13.07 11H18.93L17.4063 16H14.5938L13.07 11Z" fill="#14213D"/>
</svg>
