<svg width="32" height="32" viewBox="0 0 32 32" fill="none" xmlns="http://www.w3.org/2000/svg">
<circle cx="16" cy="16" r="16" fill="#DD1C1A"/>
<path fill-rule="evenodd" clip-rule="evenodd" d="M16.4941 25.3817L16.4849 25.3833L16.4257 25.4125L16.4091 25.4158L16.3974 25.4125L16.3382 25.3833C16.3293 25.3805 16.3227 25.3819 16.3182 25.3875L16.3149 25.3958L16.3007 25.7525L16.3049 25.7692L16.3132 25.78L16.3999 25.8417L16.4124 25.845L16.4224 25.8417L16.5091 25.78L16.5191 25.7667L16.5224 25.7525L16.5082 25.3967C16.506 25.3878 16.5013 25.3828 16.4941 25.3817ZM16.7149 25.2875L16.7041 25.2892L16.5499 25.3667L16.5416 25.375L16.5391 25.3842L16.5541 25.7425L16.5582 25.7525L16.5649 25.7583L16.7324 25.8358C16.743 25.8386 16.751 25.8364 16.7566 25.8292L16.7599 25.8175L16.7316 25.3058C16.7288 25.2958 16.7232 25.2897 16.7149 25.2875ZM16.1191 25.2892C16.1154 25.2869 16.111 25.2862 16.1068 25.2871C16.1026 25.2881 16.0989 25.2906 16.0966 25.2942L16.0916 25.3058L16.0632 25.8175C16.0638 25.8275 16.0685 25.8342 16.0774 25.8375L16.0899 25.8358L16.2574 25.7583L16.2657 25.7517L16.2691 25.7425L16.2832 25.3842L16.2807 25.3742L16.2724 25.3658L16.1191 25.2892Z" fill="white"/>
<path fill-rule="evenodd" clip-rule="evenodd" d="M17.6667 7.66669C18.5219 7.66669 19.3444 7.99538 19.964 8.58479C20.5837 9.1742 20.9531 9.97922 20.9958 10.8334L21 11V21C21 21.8552 20.6713 22.6777 20.0819 23.2974C19.4925 23.917 18.6875 24.2864 17.8333 24.3292L17.6667 24.3334H14.3333C13.4781 24.3334 12.6556 24.0047 12.036 23.4153C11.4163 22.8258 11.0469 22.0208 11.0042 21.1667L11 21V11C11 10.1448 11.3287 9.32233 11.9181 8.70268C12.5075 8.08302 13.3125 7.71361 14.1667 7.67085L14.3333 7.66669H17.6667ZM16 18.5C15.558 18.5 15.134 18.6756 14.8215 18.9882C14.5089 19.3007 14.3333 19.7247 14.3333 20.1667C14.3333 20.6087 14.5089 21.0326 14.8215 21.3452C15.134 21.6578 15.558 21.8334 16 21.8334C16.442 21.8334 16.866 21.6578 17.1785 21.3452C17.4911 21.0326 17.6667 20.6087 17.6667 20.1667C17.6667 19.7247 17.4911 19.3007 17.1785 18.9882C16.866 18.6756 16.442 18.5 16 18.5ZM16 14.3334C15.558 14.3334 15.134 14.5089 14.8215 14.8215C14.5089 15.1341 14.3333 15.558 14.3333 16C14.3333 16.442 14.5089 16.866 14.8215 17.1785C15.134 17.4911 15.558 17.6667 16 17.6667C16.442 17.6667 16.866 17.4911 17.1785 17.1785C17.4911 16.866 17.6667 16.442 17.6667 16C17.6667 15.558 17.4911 15.1341 17.1785 14.8215C16.866 14.5089 16.442 14.3334 16 14.3334ZM16 10.1667C15.558 10.1667 15.134 10.3423 14.8215 10.6548C14.5089 10.9674 14.3333 11.3913 14.3333 11.8334C14.3333 12.2754 14.5089 12.6993 14.8215 13.0119C15.134 13.3244 15.558 13.5 16 13.5C16.442 13.5 16.866 13.3244 17.1785 13.0119C17.4911 12.6993 17.6667 12.2754 17.6667 11.8334C17.6667 11.3913 17.4911 10.9674 17.1785 10.6548C16.866 10.3423 16.442 10.1667 16 10.1667Z" fill="white"/>
</svg>
