<svg width="14" height="14" viewBox="0 0 14 14" fill="none" xmlns="http://www.w3.org/2000/svg">
<path d="M7 1.16666C8.39239 1.16666 9.72774 1.71978 10.7123 2.70435C11.6969 3.68891 12.25 5.02427 12.25 6.41666C12.25 8.20982 11.2723 9.67749 10.2422 10.7304C9.72748 11.2508 9.16587 11.7226 8.5645 12.1397L8.316 12.3089L8.19933 12.3865L7.97942 12.5265L7.78342 12.6461L7.54075 12.7872C7.37604 12.8813 7.18966 12.9307 7 12.9307C6.81034 12.9307 6.62396 12.8813 6.45925 12.7872L6.21658 12.6461L5.91325 12.4594L5.80125 12.3865L5.56208 12.2272C4.91332 11.7883 4.30903 11.287 3.75783 10.7304C2.72767 9.67691 1.75 8.20982 1.75 6.41666C1.75 5.02427 2.30312 3.68891 3.28769 2.70435C4.27226 1.71978 5.60761 1.16666 7 1.16666ZM7 4.66666C6.77019 4.66666 6.54262 4.71192 6.3303 4.79987C6.11798 4.88781 5.92507 5.01672 5.76256 5.17922C5.60006 5.34172 5.47116 5.53464 5.38321 5.74696C5.29526 5.95928 5.25 6.18684 5.25 6.41666C5.25 6.64647 5.29526 6.87403 5.38321 7.08635C5.47116 7.29867 5.60006 7.49159 5.76256 7.65409C5.92507 7.8166 6.11798 7.9455 6.3303 8.03345C6.54262 8.12139 6.77019 8.16666 7 8.16666C7.46413 8.16666 7.90925 7.98228 8.23744 7.65409C8.56563 7.3259 8.75 6.88078 8.75 6.41666C8.75 5.95253 8.56563 5.50741 8.23744 5.17922C7.90925 4.85103 7.46413 4.66666 7 4.66666Z" fill="white"/>
</svg>
