<svg width="32" height="32" viewBox="0 0 32 32" fill="none" xmlns="http://www.w3.org/2000/svg">
<path d="M7.48804 26.6666C6.87382 26.6666 6.36137 26.4613 5.95071 26.0506C5.54004 25.64 5.33426 25.1271 5.33337 24.512V7.48798C5.33337 6.87376 5.53915 6.36131 5.95071 5.95065C6.36226 5.53998 6.87471 5.3342 7.48804 5.33331H15.3587C15.5489 5.33331 15.7076 5.39687 15.8347 5.52398C15.9618 5.65109 16.0254 5.80976 16.0254 5.99998C16.0254 6.1902 15.9618 6.34887 15.8347 6.47598C15.7076 6.60309 15.5489 6.66665 15.3587 6.66665H7.48804C7.28271 6.66665 7.09426 6.75198 6.92271 6.92265C6.75115 7.09331 6.66582 7.28176 6.66671 7.48798V24.5133C6.66671 24.7178 6.75204 24.9058 6.92271 25.0773C7.09337 25.2489 7.28137 25.3342 7.48671 25.3333H15.3587C15.5489 25.3333 15.7076 25.3969 15.8347 25.524C15.9618 25.6511 16.0254 25.8098 16.0254 26C16.0254 26.1902 15.9618 26.3489 15.8347 26.476C15.7076 26.6031 15.5489 26.6666 15.3587 26.6666H7.48804ZM24.08 16.6666H12.9227C12.7334 16.6666 12.5752 16.6031 12.448 16.476C12.3209 16.3489 12.2569 16.1902 12.256 16C12.2552 15.8098 12.3187 15.6511 12.4467 15.524C12.5747 15.3969 12.7334 15.3333 12.9227 15.3333H24.08L21.452 12.7053C21.3267 12.5809 21.26 12.4306 21.252 12.2546C21.2432 12.0778 21.3098 11.916 21.452 11.7693C21.5934 11.6226 21.7503 11.548 21.9227 11.5453C22.096 11.5426 22.256 11.6146 22.4027 11.7613L25.888 15.2453C26.1032 15.4613 26.2107 15.7129 26.2107 16C26.2107 16.2871 26.1027 16.5386 25.8867 16.7546L22.4027 20.2386C22.2729 20.3684 22.1187 20.4364 21.94 20.4426C21.7614 20.4489 21.5987 20.3782 21.452 20.2306C21.3098 20.084 21.24 19.9253 21.2427 19.7546C21.2454 19.584 21.3174 19.4284 21.4587 19.288L24.08 16.6666Z" fill="white"/>
</svg>
