<svg width="24" height="24" viewBox="0 0 24 24" fill="none" xmlns="http://www.w3.org/2000/svg">
<path fill-rule="evenodd" clip-rule="evenodd" d="M7.4725 8.7255H4.3875C4.3105 8.9845 4.2385 9.2165 4.1675 9.4425L4.068 9.763C3.921 10.24 3.5605 10.642 3.066 10.708C2.4845 10.7855 1.863 10.74 1.4055 10.4495C0.996499 10.163 0.926999 9.6745 1.0645 9.2245C1.6675 7.2565 2.8955 3.913 3.523 2.229C3.772 1.56 4.252 0.9715 4.954 0.84C5.29012 0.778241 5.63126 0.747943 5.973 0.7495C6.7415 0.7495 8.01 0.8655 8.3245 1.7195C9.23 4.1135 9.9485 6.588 10.6625 9.0495L10.7635 9.3985C10.91 9.9025 10.7685 10.461 10.264 10.6085C9.68 10.7785 8.9315 10.7985 8.4115 10.6465C8.124 10.5625 7.95 10.2965 7.8605 10.0105C7.72553 9.58389 7.59619 9.15552 7.4725 8.7255ZM6.0055 3.491C5.99086 3.49127 5.97663 3.49582 5.96454 3.50408C5.95246 3.51234 5.94306 3.52396 5.9375 3.5375L4.865 6.2515H6.9785L6.0745 3.5415C6.06943 3.52715 6.06011 3.51468 6.04779 3.50575C6.03546 3.49682 6.02071 3.49135 6.0055 3.491ZM2.7775 22.749C2.1125 22.749 1.3725 22.57 1.1225 21.9535C0.940999 21.506 0.993499 21.071 1.0755 20.7725C1.149 20.506 1.3235 20.287 1.5175 20.0895C2.66 18.9275 5.981 15.4995 5.981 15.4995H2.424C1.975 15.4995 1.526 15.3075 1.347 14.896C1.21657 14.6026 1.14765 14.2856 1.1445 13.9645C1.1445 13.192 1.6595 12.7495 2.4195 12.7495H9.0765C9.6585 12.7495 10.2875 12.8755 10.61 13.3595C10.986 13.925 10.8795 14.5045 10.7565 14.8445C10.681 15.0535 10.538 15.2235 10.383 15.3825C9.263 16.5295 5.981 19.999 5.981 19.999H9.7295C10.212 19.999 10.682 20.229 10.8385 20.686C10.9385 20.978 11 21.2875 11 21.551C11 22.3585 10.552 22.7495 9.7455 22.7495L2.7775 22.749ZM22.2295 18.3385C21.6535 18.3049 21.0769 18.2821 20.5 18.27V9.749C20.5 5.2075 20.412 2.8325 20.353 1.7465C20.3265 1.2605 20.03 0.859 19.5465 0.802C19.199 0.764024 18.8496 0.746328 18.5 0.749C18.0575 0.749 17.715 0.771 17.453 0.802C16.97 0.859 16.673 1.2605 16.647 1.7465C16.588 2.8325 16.5 5.2075 16.5 9.749V18.27C15.9231 18.2819 15.3465 18.3046 14.7705 18.338C14.0675 18.3805 13.7615 19.108 14.212 19.65C15.8475 21.6185 17.36 22.6865 18.072 23.127C18.2001 23.2073 18.3483 23.2499 18.4995 23.2499C18.6507 23.2499 18.7989 23.2073 18.927 23.127C19.639 22.687 21.152 21.6185 22.787 19.65C23.2375 19.1085 22.932 18.3805 22.2285 18.338L22.2295 18.3385Z" fill="#5C807F"/>
</svg>
