<svg width="32" height="32" viewBox="0 0 32 32" fill="none" xmlns="http://www.w3.org/2000/svg">
<path fill-rule="evenodd" clip-rule="evenodd" d="M16.7907 31.0107L16.776 31.0133L16.6813 31.06L16.6547 31.0653L16.636 31.06L16.5413 31.0133C16.5271 31.0089 16.5164 31.0111 16.5093 31.02L16.504 31.0333L16.4813 31.604L16.488 31.6307L16.5013 31.648L16.64 31.7467L16.66 31.752L16.676 31.7467L16.8147 31.648L16.8307 31.6267L16.836 31.604L16.8133 31.0347C16.8098 31.0204 16.8022 31.0124 16.7907 31.0107ZM17.144 30.86L17.1267 30.8627L16.88 30.9867L16.8667 31L16.8627 31.0147L16.8867 31.588L16.8933 31.604L16.904 31.6133L17.172 31.7373C17.1889 31.7418 17.2018 31.7382 17.2107 31.7267L17.216 31.708L17.1707 30.8893C17.1662 30.8733 17.1573 30.8636 17.144 30.86ZM16.1907 30.8627C16.1848 30.8591 16.1778 30.858 16.1711 30.8594C16.1644 30.8609 16.1585 30.865 16.1547 30.8707L16.1467 30.8893L16.1013 31.708C16.1022 31.724 16.1098 31.7347 16.124 31.74L16.144 31.7373L16.412 31.6133L16.4253 31.6027L16.4307 31.588L16.4533 31.0147L16.4493 30.9987L16.436 30.9853L16.1907 30.8627Z" fill="#5C807F"/>
<path fill-rule="evenodd" clip-rule="evenodd" d="M18.6667 2.66667C20.035 2.66667 21.351 3.19259 22.3424 4.13564C23.3339 5.07869 23.9249 6.36673 23.9933 7.73334L24 8V24C24 25.3683 23.4741 26.6843 22.531 27.6758C21.588 28.6672 20.2999 29.2583 18.9333 29.3267L18.6667 29.3333H13.3333C11.965 29.3333 10.649 28.8074 9.65758 27.8644C8.66614 26.9213 8.07508 25.6333 8.00667 24.2667L8 24V8C8 6.63168 8.52591 5.3157 9.46896 4.32426C10.412 3.33281 11.7001 2.74175 13.0667 2.67334L13.3333 2.66667H18.6667ZM16 20C15.2928 20 14.6145 20.281 14.1144 20.7811C13.6143 21.2812 13.3333 21.9594 13.3333 22.6667C13.3333 23.3739 13.6143 24.0522 14.1144 24.5523C14.6145 25.0524 15.2928 25.3333 16 25.3333C16.7072 25.3333 17.3855 25.0524 17.8856 24.5523C18.3857 24.0522 18.6667 23.3739 18.6667 22.6667C18.6667 21.9594 18.3857 21.2812 17.8856 20.7811C17.3855 20.281 16.7072 20 16 20ZM16 13.3333C15.2928 13.3333 14.6145 13.6143 14.1144 14.1144C13.6143 14.6145 13.3333 15.2928 13.3333 16C13.3333 16.7072 13.6143 17.3855 14.1144 17.8856C14.6145 18.3857 15.2928 18.6667 16 18.6667C16.7072 18.6667 17.3855 18.3857 17.8856 17.8856C18.3857 17.3855 18.6667 16.7072 18.6667 16C18.6667 15.2928 18.3857 14.6145 17.8856 14.1144C17.3855 13.6143 16.7072 13.3333 16 13.3333ZM16 6.66667C15.2928 6.66667 14.6145 6.94762 14.1144 7.44772C13.6143 7.94782 13.3333 8.62609 13.3333 9.33334C13.3333 10.0406 13.6143 10.7189 14.1144 11.219C14.6145 11.7191 15.2928 12 16 12C16.7072 12 17.3855 11.7191 17.8856 11.219C18.3857 10.7189 18.6667 10.0406 18.6667 9.33334C18.6667 8.62609 18.3857 7.94782 17.8856 7.44772C17.3855 6.94762 16.7072 6.66667 16 6.66667Z" fill="#5C807F"/>
</svg>
